<svg xmlns="http://www.w3.org/2000/svg" width="22" height="22" viewBox="0 0 22 22">
    <path fill="none" fill-rule="evenodd" stroke="#FFF" stroke-width="1.5" d="M7.217 14.783c4.67 4.671 8.853 6.076 9.434 6.159.583.083 1.537.27 2.92-1.113 1.62-1.62 1.783-2.47.89-3.362-.891-.892-3.105-2.24-3.708-2.588-.602-.347-1.113-.236-1.547.066-.434.303-.935.688-1.399 1.024-.464.335-1.044.477-1.666.083a16.795 16.795 0 0 1-2.867-2.326A16.795 16.795 0 0 1 6.948 9.86c-.394-.622-.252-1.202.083-1.666.336-.464.721-.965 1.024-1.399.302-.434.413-.945.066-1.547-.348-.602-1.696-2.817-2.588-3.708-.891-.893-1.742-.73-3.362.89C.787 3.813.975 4.767 1.058 5.35c.083.581 1.488 4.763 6.159 9.434"/>
</svg>
